<?xml version="1.0" encoding="utf-8"?>
<!-- Generator: Adobe Illustrator 25.2.3, SVG Export Plug-In . SVG Version: 6.00 Build 0)  -->
<svg version="1.1" id="Ebene_1" xmlns="http://www.w3.org/2000/svg" xmlns:xlink="http://www.w3.org/1999/xlink" x="0px" y="0px"
	 viewBox="0 0 20 20" style="enable-background:new 0 0 20 20;" xml:space="preserve">
<style type="text/css">
	.st0{fill:none;}
</style>
<polyline class="st0" points="0,9.2 10,13.9 20,9.2 "/>
<polyline class="st0" points="3,4.5 0,5.9 0,20 20,20 20,5.9 17,4.5 "/>
<polyline class="st0" points="17,10.6 17,0 3,0 3,10.6 "/>
<path class="st0" d="M11.7,3C11,3,10.4,3.3,10,3.8C9.6,3.3,9,3,8.3,3C7.2,3,6.2,3.9,6.2,5.1C6.2,6.5,8.1,7.2,10,9
	c1.9-1.8,3.8-2.5,3.8-3.9C13.8,3.9,12.8,3,11.7,3z"/>
</svg>
