<?xml version="1.0" encoding="utf-8"?>
<!-- Generator: Adobe Illustrator 25.0.0, SVG Export Plug-In . SVG Version: 6.00 Build 0)  -->
<svg version="1.1" id="Ebene_1" xmlns="http://www.w3.org/2000/svg" xmlns:xlink="http://www.w3.org/1999/xlink" x="0px" y="0px"
	 viewBox="0 0 20 20" style="enable-background:new 0 0 20 20;" xml:space="preserve">
<style type="text/css">
	.st0{fill:none;}
</style>
<circle class="st0" cx="4.9" cy="14.8" r="2.2"/>
<path class="st0" d="M18.6,7.3L19.9,6l-2.2-2.2L19,2.5c0.5-0.5,0.5-1.3,0-1.8s-1.3-0.5-1.8,0l-9.9,9.9C6.6,10.2,5.8,10,4.9,10
	C2.2,10,0,12.2,0,14.9s2.2,4.9,4.9,4.9s4.9-2.2,4.9-4.9c0-0.9-0.2-1.7-0.7-2.4l4.6-4.6l1.8,1.8l1.3-1.3L15,6.6l1.3-1.3L18.6,7.3z"/>
</svg>
