<?xml version="1.0" encoding="utf-8"?>
<!-- Generator: Adobe Illustrator 25.2.3, SVG Export Plug-In . SVG Version: 6.00 Build 0)  -->
<svg version="1.1" id="Ebene_1" xmlns="http://www.w3.org/2000/svg" xmlns:xlink="http://www.w3.org/1999/xlink" x="0px" y="0px"
	 viewBox="0 0 20 20" style="enable-background:new 0 0 20 20;" xml:space="preserve">
<style type="text/css">
	.st0{fill:none;}
</style>
<path class="st0" d="M20,9H9l1.2-0.9c0.5-0.4,0.8-1,0.8-1.6v-3C11,1.6,12.6,0,14.5,0l0,0C16.4,0,18,1.6,18,3.5l0,0v3
	c0,0.6,0.3,1.2,0.8,1.6L20,9z"/>
<path class="st0" d="M15.9,9C16,9.2,16,9.3,16,9.5c0,0.8-0.7,1.5-1.5,1.5S13,10.3,13,9.5c0-0.2,0-0.3,0.1-0.5"/>
<polyline class="st0" points="18,11 18,20 0,20 0,7.5 7.7,7.5 "/>
<polyline class="st0" points="0,10.3 9,14.5 13,12.6 "/>
</svg>
