<?xml version="1.0" encoding="utf-8"?>
<!-- Generator: Adobe Illustrator 25.0.0, SVG Export Plug-In . SVG Version: 6.00 Build 0)  -->
<svg version="1.1" id="Ebene_1" xmlns="http://www.w3.org/2000/svg" xmlns:xlink="http://www.w3.org/1999/xlink" x="0px" y="0px"
	 viewBox="0 0 20 20" style="enable-background:new 0 0 20 20;" xml:space="preserve">
<style type="text/css">
	.st0{fill:none; stroke: black;
  stroke-width: 1;
  stroke-linecap: round;
  stroke-linejoin: round;}
</style>
<polyline class="st0" points="6.8,16.3 0,16.3 0,2.3 6.1,2.3 "/>
<polyline class="st0" points="13.9,2.3 20,2.3 20,8.9 "/>
<line class="st0" x1="0" y1="5.8" x2="20" y2="5.8"/>
<path class="st0" d="M10,0C8.8,0,7.8,1,7.8,2.2v1.9h4.3V2.2C12.2,1,11.2,0,10,0z"/>
<circle class="st0" cx="4.7" cy="9.7" r="1.3"/>
<path class="st0" d="M6.8,13.7H2.5c0-1.4,1-2.6,2.2-2.6S6.8,12.2,6.8,13.7z"/>
<rect x="10" y="12" class="st0" width="10" height="8"/>
<polyline class="st0" points="10,14.6 15,16.9 20,14.6 "/>
</svg>
